<svg width="645.43994140625px" height="220px" xmlns="http://www.w3.org/2000/svg" viewBox="10.719970703125 5.440005493164065 645.43994140625 150.88001098632813" style="background: rgba(0, 0, 0, 0);" preserveAspectRatio="xMidYMid"><defs><linearGradient id="editing-gradow-gradient" x1="0.07141634964894394" x2="0.9285836503510561" y1="0.7575190374550272" y2="0.24248096254497276" gradientUnits="objectBoundingBox"><stop offset="0" stop-color="#eff0ef"></stop><stop offset="1" stop-color="#45614b"></stop></linearGradient><filter id="editing-gradow-filter" x="-100%" y="-100%" width="300%" height="300%"><feFlood flood-color="rgba(43,43,43,0.205)" result="flood"></feFlood><feComposite operator="in" in2="SourceAlpha" in="flood" result="shadow"></feComposite><feOffset dx="-4" dy="-4" in="SourceGraphic" result="offset-1"></feOffset><feOffset dx="4" dy="4" in="shadow" result="offset-2"></feOffset><feMerge><feMergeNode in="offset-2"></feMergeNode><feMergeNode in="offset-1"></feMergeNode></feMerge></filter></defs><g filter="url(#editing-gradow-filter)"><g transform="translate(20.000015258789062, 108.40000057220459)"><path d="M49.70 0L4.50 0L4.50-5L39-58.60L7.60-58.60L7.60-65.60L49.40-65.60L49.40-60.70L14.80-7.10L49.70-7.10L49.70 0ZM85.20 1.20L85.20 1.20L85.20 1.20Q80.20 1.20 75.85-0.25L75.85-0.25L75.85-0.25Q71.50-1.70 68.35-5.05L68.35-5.05L68.35-5.05Q65.20-8.40 63.40-13.80L63.40-13.80L63.40-13.80Q61.60-19.20 61.60-27.10L61.60-27.10L61.60-65.60L69.90-65.60L69.90-26.90L69.90-26.90Q69.90-21 71.10-17L71.10-17L71.10-17Q72.30-13 74.35-10.60L74.35-10.60L74.35-10.60Q76.40-8.20 79.20-7.15L79.20-7.15L79.20-7.15Q82-6.10 85.20-6.10L85.20-6.10L85.20-6.10Q88.50-6.10 91.30-7.15L91.30-7.15L91.30-7.15Q94.10-8.20 96.20-10.60L96.20-10.60L96.20-10.60Q98.30-13 99.50-17L99.50-17L99.50-17Q100.70-21 100.70-26.90L100.70-26.90L100.70-65.60L108.70-65.60L108.70-27.10L108.70-27.10Q108.70-19.20 106.90-13.80L106.90-13.80L106.90-13.80Q105.10-8.40 101.95-5.05L101.95-5.05L101.95-5.05Q98.80-1.70 94.50-0.25L94.50-0.25L94.50-0.25Q90.20 1.20 85.20 1.20ZM147.30 0L126.40 0L126.40-65.60L145.90-65.60L145.90-65.60Q150.90-65.60 155.05-64.70L155.05-64.70L155.05-64.70Q159.20-63.80 162.15-61.90L162.15-61.90L162.15-61.90Q165.10-60 166.75-56.95L166.75-56.95L166.75-56.95Q168.40-53.90 168.40-49.60L168.40-49.60L168.40-49.60Q168.40-44.70 165.95-40.75L165.95-40.75L165.95-40.75Q163.50-36.80 158.80-35.30L158.80-35.30L158.80-34.90L158.80-34.90Q164.80-33.80 168.50-29.90L168.50-29.90L168.50-29.90Q172.20-26 172.20-19.20L172.20-19.20L172.20-19.20Q172.20-14.40 170.40-10.80L170.40-10.80L170.40-10.80Q168.60-7.20 165.30-4.80L165.30-4.80L165.30-4.80Q162-2.40 157.40-1.20L157.40-1.20L157.40-1.20Q152.80 0 147.30 0L147.30 0ZM134.70-59L134.70-37.70L144.40-37.70L144.40-37.70Q152.80-37.70 156.50-40.60L156.50-40.60L156.50-40.60Q160.20-43.50 160.20-48.50L160.20-48.50L160.20-48.50Q160.20-54.20 156.35-56.60L156.35-56.60L156.35-56.60Q152.50-59 144.80-59L144.80-59L134.70-59ZM134.70-31.30L134.70-6.60L146.10-6.60L146.10-6.60Q154.60-6.60 159.30-9.75L159.30-9.75L159.30-9.75Q164-12.90 164-19.50L164-19.50L164-19.50Q164-25.60 159.40-28.45L159.40-28.45L159.40-28.45Q154.80-31.30 146.10-31.30L146.10-31.30L134.70-31.30ZM193.50 0L185.20 0L185.20-65.60L205.70-65.60L205.70-65.60Q210.70-65.60 214.95-64.65L214.95-64.65L214.95-64.65Q219.20-63.70 222.25-61.50L222.25-61.50L222.25-61.50Q225.30-59.30 227.00-55.80L227.00-55.80L227.00-55.80Q228.70-52.30 228.70-47.20L228.70-47.20L228.70-47.20Q228.70-39.50 224.70-34.90L224.70-34.90L224.70-34.90Q220.70-30.30 213.90-28.60L213.90-28.60L230.60 0L221.20 0L205.40-27.70L193.50-27.70L193.50 0ZM193.50-58.90L193.50-34.50L204.50-34.50L204.50-34.50Q212.20-34.50 216.30-37.65L216.30-37.65L216.30-37.65Q220.40-40.80 220.40-47.20L220.40-47.20L220.40-47.20Q220.40-53.70 216.30-56.30L216.30-56.30L216.30-56.30Q212.20-58.90 204.50-58.90L204.50-58.90L193.50-58.90ZM257.10-21.90L234.10-21.90L234.10-28.20L257.10-28.20L257.10-21.90ZM306.30 0L265.10 0L265.10-4.90L265.10-4.90Q272.30-12.10 277.90-17.90L277.90-17.90L277.90-17.90Q283.50-23.70 287.30-28.65L287.30-28.65L287.30-28.65Q291.10-33.60 293.10-37.75L293.10-37.75L293.10-37.75Q295.10-41.90 295.10-45.80L295.10-45.80L295.10-45.80Q295.10-51.30 292.10-54.80L292.10-54.80L292.10-54.80Q289.10-58.30 283-58.30L283-58.30L283-58.30Q279-58.30 275.60-56.05L275.60-56.05L275.60-56.05Q272.20-53.80 269.40-50.60L269.40-50.60L264.70-55.30L264.70-55.30Q268.70-59.70 273.20-62.35L273.20-62.35L273.20-62.35Q277.70-65 284-65L284-65L284-65Q292.90-65 298-59.85L298-59.85L298-59.85Q303.10-54.70 303.10-46.20L303.10-46.20L303.10-46.20Q303.10-41.70 301.15-37.15L301.15-37.15L301.15-37.15Q299.20-32.60 295.75-27.75L295.75-27.75L295.75-27.75Q292.30-22.90 287.55-17.65L287.55-17.65L287.55-17.65Q282.80-12.40 277.10-6.50L277.10-6.50L277.10-6.50Q279.70-6.70 282.50-6.90L282.50-6.90L282.50-6.90Q285.30-7.10 287.80-7.10L287.80-7.10L306.30-7.10L306.30 0ZM335.70 1.20L335.70 1.20L335.70 1.20Q326 1.20 320.60-7.40L320.60-7.40L320.60-7.40Q315.20-16 315.20-32.10L315.20-32.10L315.20-32.10Q315.20-48.20 320.60-56.60L320.60-56.60L320.60-56.60Q326-65 335.70-65L335.70-65L335.70-65Q345.30-65 350.70-56.60L350.70-56.60L350.70-56.60Q356.10-48.20 356.10-32.10L356.10-32.10L356.10-32.10Q356.10-16 350.70-7.40L350.70-7.40L350.70-7.40Q345.30 1.20 335.70 1.20ZM335.70-5.40L335.70-5.40L335.70-5.40Q338.50-5.40 340.75-6.95L340.75-6.95L340.75-6.95Q343-8.50 344.65-11.75L344.65-11.75L344.65-11.75Q346.30-15 347.20-20.05L347.20-20.05L347.20-20.05Q348.10-25.10 348.10-32.10L348.10-32.10L348.10-32.10Q348.10-39.10 347.20-44.10L347.20-44.10L347.20-44.10Q346.30-49.10 344.65-52.25L344.65-52.25L344.65-52.25Q343-55.40 340.75-56.90L340.75-56.90L340.75-56.90Q338.50-58.40 335.70-58.40L335.70-58.40L335.70-58.40Q332.90-58.40 330.60-56.90L330.60-56.90L330.60-56.90Q328.30-55.40 326.65-52.25L326.65-52.25L326.65-52.25Q325-49.10 324.10-44.10L324.10-44.10L324.10-44.10Q323.20-39.10 323.20-32.10L323.20-32.10L323.20-32.10Q323.20-18.10 326.65-11.75L326.65-11.75L326.65-11.75Q330.10-5.40 335.70-5.40ZM385.40 1.20L385.40 1.20L385.40 1.20Q375.70 1.20 370.30-7.40L370.30-7.40L370.30-7.40Q364.90-16 364.90-32.10L364.90-32.10L364.90-32.10Q364.90-48.20 370.30-56.60L370.30-56.60L370.30-56.60Q375.70-65 385.40-65L385.40-65L385.40-65Q395-65 400.40-56.60L400.40-56.60L400.40-56.60Q405.80-48.20 405.80-32.10L405.80-32.10L405.80-32.10Q405.80-16 400.40-7.40L400.40-7.40L400.40-7.40Q395 1.20 385.40 1.20ZM385.40-5.40L385.40-5.40L385.40-5.40Q388.20-5.40 390.45-6.95L390.45-6.95L390.45-6.95Q392.70-8.50 394.35-11.75L394.35-11.75L394.35-11.75Q396-15 396.90-20.05L396.90-20.05L396.90-20.05Q397.80-25.10 397.80-32.10L397.80-32.10L397.80-32.10Q397.80-39.10 396.90-44.10L396.90-44.10L396.90-44.10Q396-49.10 394.35-52.25L394.35-52.25L394.35-52.25Q392.70-55.40 390.45-56.90L390.45-56.90L390.45-56.90Q388.20-58.40 385.40-58.40L385.40-58.40L385.40-58.40Q382.60-58.40 380.30-56.90L380.30-56.90L380.30-56.90Q378-55.40 376.35-52.25L376.35-52.25L376.35-52.25Q374.70-49.10 373.80-44.10L373.80-44.10L373.80-44.10Q372.90-39.10 372.90-32.10L372.90-32.10L372.90-32.10Q372.90-18.10 376.35-11.75L376.35-11.75L376.35-11.75Q379.80-5.40 385.40-5.40ZM435.10 1.20L435.10 1.20L435.10 1.20Q425.40 1.20 420-7.40L420-7.40L420-7.40Q414.60-16 414.60-32.10L414.60-32.10L414.60-32.10Q414.60-48.20 420-56.60L420-56.60L420-56.60Q425.40-65 435.10-65L435.10-65L435.10-65Q444.70-65 450.10-56.60L450.10-56.60L450.10-56.60Q455.50-48.20 455.50-32.10L455.50-32.10L455.50-32.10Q455.50-16 450.10-7.40L450.10-7.40L450.10-7.40Q444.70 1.20 435.10 1.20ZM435.10-5.40L435.10-5.40L435.10-5.40Q437.90-5.40 440.15-6.95L440.15-6.95L440.15-6.95Q442.40-8.50 444.05-11.75L444.05-11.75L444.05-11.75Q445.70-15 446.60-20.05L446.60-20.05L446.60-20.05Q447.50-25.10 447.50-32.10L447.50-32.10L447.50-32.10Q447.50-39.10 446.60-44.10L446.60-44.10L446.60-44.10Q445.70-49.10 444.05-52.25L444.05-52.25L444.05-52.25Q442.40-55.40 440.15-56.90L440.15-56.90L440.15-56.90Q437.90-58.40 435.10-58.40L435.10-58.40L435.10-58.40Q432.30-58.40 430-56.90L430-56.90L430-56.90Q427.70-55.40 426.05-52.25L426.05-52.25L426.05-52.25Q424.40-49.10 423.50-44.10L423.50-44.10L423.50-44.10Q422.60-39.10 422.60-32.10L422.60-32.10L422.60-32.10Q422.60-18.10 426.05-11.75L426.05-11.75L426.05-11.75Q429.50-5.40 435.10-5.40Z" fill="url(#editing-gradow-gradient)"></path></g></g><style>text {
  font-size: 64px;
  font-family: Arial Black;
  dominant-baseline: central;
  text-anchor: middle;
}</style></svg>