<svg width="645.43994140625px" height="220px"  xmlns="http://www.w3.org/2000/svg" viewBox="250 30 250 90.8" style="background: none;" preserveAspectRatio="xMidYMid"><defs><linearGradient id="editing-gradow-gradient" x1="0" x2="1" y1="0.5000000000000001" y2="0.4999999999999999" gradientUnits="objectBoundingBox"><stop offset="0" stop-color="#eaf5ec"></stop><stop offset="1" stop-color="#9badb9"></stop></linearGradient><filter id="editing-gradow-filter" x="-100%" y="-100%" width="400%" height="400%"><feFlood flood-color="rgba(7.490033538808069%,22.3785296333386%,35.405963716052824%,0)" result="flood"></feFlood><feComposite operator="in" in2="SourceAlpha" in="flood" result="shadow"></feComposite><feOffset dx="46" dy="-3.7" in="SourceGraphic" result="offset-1"></feOffset><feOffset dx="-46" dy="3.7" in="shadow" result="offset-2"></feOffset><feMerge><feMergeNode in="offset-2"></feMergeNode><feMergeNode in="offset-1"></feMergeNode></feMerge></filter></defs><g filter="url(#editing-gradow-filter)"><g transform="translate(128.6350154876709, 90.05000019073486)"><path d="M2.92 0L2.92-2.25L19.44-26.41L4.37-26.41L4.37-29.56L24.03-29.56L24.03-27.31L7.47-3.19L24.25-3.19L24.25 0L2.92 0ZM30.55-11.16L30.55-29.52L34.34-29.52L34.34-11.07L34.34-11.07Q34.34-8.78 34.81-7.18L34.81-7.18L34.81-7.18Q35.28-5.58 36.11-4.61L36.11-4.61L36.11-4.61Q36.95-3.65 38.07-3.19L38.07-3.19L38.07-3.19Q39.20-2.75 40.55-2.75L40.55-2.75L40.55-2.75Q41.89-2.75 43.02-3.19L43.02-3.19L43.02-3.19Q44.14-3.65 45-4.61L45-4.61L45-4.61Q45.86-5.58 46.33-7.18L46.33-7.18L46.33-7.18Q46.80-8.78 46.80-11.07L46.80-11.07L46.80-29.52L50.45-29.52L50.45-11.16L50.45-11.16Q50.45-7.96 49.70-5.76L49.70-5.76L49.70-5.76Q48.96-3.55 47.66-2.14L47.66-2.14L47.66-2.14Q46.35-0.72 44.53-0.09L44.53-0.09L44.53-0.09Q42.70 0.54 40.55 0.54L40.55 0.54L40.55 0.54Q38.38 0.54 36.54-0.09L36.54-0.09L36.54-0.09Q34.70-0.72 33.37-2.14L33.37-2.14L33.37-2.14Q32.04-3.55 31.30-5.76L31.30-5.76L31.30-5.76Q30.55-7.96 30.55-11.16L30.55-11.16ZM58.63 0L58.63-29.52L66.73-29.52L66.73-29.52Q68.98-29.52 70.85-29.11L70.85-29.11L70.85-29.11Q72.72-28.71 74.05-27.86L74.05-27.86L74.05-27.86Q75.38-27 76.12-25.63L76.12-25.63L76.12-25.63Q76.86-24.25 76.86-22.32L76.86-22.32L76.86-22.32Q76.86-20.11 75.58-18.34L75.58-18.34L75.58-18.34Q74.30-16.56 71.69-15.88L71.69-15.88L71.69-15.71L71.69-15.71Q74.92-15.21 76.72-13.46L76.72-13.46L76.72-13.46Q78.53-11.70 78.53-8.64L78.53-8.64L78.53-8.64Q78.53-6.48 77.72-4.86L77.72-4.86L77.72-4.86Q76.91-3.24 75.44-2.16L75.44-2.16L75.44-2.16Q73.98-1.08 71.93-0.54L71.93-0.54L71.93-0.54Q69.89 0 67.41 0L67.41 0L58.63 0ZM62.41-16.92L66.11-16.92L66.11-16.92Q69.89-16.92 71.53-18.22L71.53-18.22L71.53-18.22Q73.17-19.53 73.17-22.00L73.17-22.00L73.17-22.00Q73.17-24.43 71.44-25.49L71.44-25.49L71.44-25.49Q69.70-26.55 66.28-26.55L66.28-26.55L62.41-26.55L62.41-16.92ZM62.41-2.97L66.87-2.97L66.87-2.97Q70.69-2.97 72.77-4.39L72.77-4.39L72.77-4.39Q74.84-5.80 74.84-8.82L74.84-8.82L74.84-8.82Q74.84-11.56 72.81-12.85L72.81-12.85L72.81-12.85Q70.78-14.13 66.87-14.13L66.87-14.13L62.41-14.13L62.41-2.97ZM89.23-26.50L89.23-15.52L94.14-15.52L94.14-15.52Q97.61-15.52 99.43-16.94L99.43-16.94L99.43-16.94Q101.25-18.36 101.25-21.24L101.25-21.24L101.25-21.24Q101.25-24.16 99.43-25.33L99.43-25.33L99.43-25.33Q97.61-26.50 94.14-26.50L94.14-26.50L89.23-26.50ZM105.88 0L101.61 0L94.50-12.46L89.23-12.46L89.23 0L85.50 0L85.50-29.52L94.68-29.52L94.68-29.52Q96.93-29.52 98.82-29.09L98.82-29.09L98.82-29.09Q100.71-28.66 102.08-27.68L102.08-27.68L102.08-27.68Q103.45-26.68 104.22-25.11L104.22-25.11L104.22-25.11Q104.98-23.54 104.98-21.24L104.98-21.24L104.98-21.24Q104.98-17.77 103.19-15.71L103.19-15.71L103.19-15.71Q101.38-13.63 98.37-12.87L98.37-12.87L105.88 0ZM111.83-13.46L111.83-16.25L131.18-16.25L131.18-13.46L111.83-13.46ZM138.28 0L138.28-2.21L138.28-2.21Q141.93-5.44 144.74-8.05L144.74-8.05L144.74-8.05Q147.56-10.66 149.47-12.85L149.47-12.85L149.47-12.85Q151.38-15.03 152.37-16.92L152.37-16.92L152.37-16.92Q153.36-18.81 153.36-20.61L153.36-20.61L153.36-20.61Q153.36-23.09 151.83-24.66L151.83-24.66L151.83-24.66Q150.30-26.23 147.10-26.23L147.10-26.23L147.10-26.23Q145.08-26.23 143.35-25.22L143.35-25.22L143.35-25.22Q141.62-24.21 140.22-22.77L140.22-22.77L138.10-24.88L138.10-24.88Q140.04-26.86 142.27-28.06L142.27-28.06L142.27-28.06Q144.50-29.25 147.56-29.25L147.56-29.25L147.56-29.25Q149.72-29.25 151.45-28.64L151.45-28.64L151.45-28.64Q153.18-28.04 154.40-26.93L154.40-26.93L154.40-26.93Q155.61-25.83 156.26-24.25L156.26-24.25L156.26-24.25Q156.91-22.68 156.91-20.79L156.91-20.79L156.91-20.79Q156.91-18.77 155.95-16.72L155.95-16.72L155.95-16.72Q154.98-14.67 153.22-12.49L153.22-12.49L153.22-12.49Q151.47-10.30 149.04-7.94L149.04-7.94L149.04-7.94Q146.61-5.58 143.69-2.92L143.69-2.92L143.69-2.92Q144.99-3.01 146.36-3.10L146.36-3.10L146.36-3.10Q147.74-3.19 149.04-3.19L149.04-3.19L158.49-3.19L158.49 0L138.28 0ZM175.50 0.54L175.50 0.54L175.50 0.54Q170.69 0.54 167.94-3.35L167.94-3.35L167.94-3.35Q165.19-7.25 165.19-14.45L165.19-14.45L165.19-14.45Q165.19-21.69 167.94-25.47L167.94-25.47L167.94-25.47Q170.69-29.25 175.50-29.25L175.50-29.25L175.50-29.25Q180.31-29.25 183.06-25.47L183.06-25.47L183.06-25.47Q185.81-21.69 185.81-14.45L185.81-14.45L185.81-14.45Q185.81-7.25 183.06-3.35L183.06-3.35L183.06-3.35Q180.31 0.54 175.50 0.54ZM175.50-26.28L175.50-26.28L175.50-26.28Q174.01-26.28 172.75-25.61L172.75-25.61L172.75-25.61Q171.50-24.93 170.57-23.47L170.57-23.47L170.57-23.47Q169.65-22.00 169.16-19.78L169.16-19.78L169.16-19.78Q168.66-17.55 168.66-14.45L168.66-14.45L168.66-14.45Q168.66-8.28 170.57-5.35L170.57-5.35L170.57-5.35Q172.49-2.43 175.50-2.43L175.50-2.43L175.50-2.43Q178.51-2.43 180.43-5.35L180.43-5.35L180.43-5.35Q182.34-8.28 182.34-14.45L182.34-14.45L182.34-14.45Q182.34-17.55 181.84-19.78L181.84-19.78L181.84-19.78Q181.35-22.00 180.43-23.47L180.43-23.47L180.43-23.47Q179.50-24.93 178.25-25.61L178.25-25.61L178.25-25.61Q176.99-26.28 175.50-26.28ZM175.50-11.74L175.50-11.74L175.50-11.74Q174.38-11.74 173.54-12.53L173.54-12.53L173.54-12.53Q172.71-13.32 172.71-14.76L172.71-14.76L172.71-14.76Q172.71-16.16 173.54-16.94L173.54-16.94L173.54-16.94Q174.38-17.73 175.50-17.73L175.50-17.73L175.50-17.73Q176.63-17.73 177.46-16.94L177.46-16.94L177.46-16.94Q178.29-16.16 178.29-14.76L178.29-14.76L178.29-14.76Q178.29-13.32 177.46-12.53L177.46-12.53L177.46-12.53Q176.63-11.74 175.50-11.74ZM202.50 0.54L202.50 0.54L202.50 0.54Q197.69 0.54 194.94-3.35L194.94-3.35L194.94-3.35Q192.19-7.25 192.19-14.45L192.19-14.45L192.19-14.45Q192.19-21.69 194.94-25.47L194.94-25.47L194.94-25.47Q197.69-29.25 202.50-29.25L202.50-29.25L202.50-29.25Q207.31-29.25 210.06-25.47L210.06-25.47L210.06-25.47Q212.81-21.69 212.81-14.45L212.81-14.45L212.81-14.45Q212.81-7.25 210.06-3.35L210.06-3.35L210.06-3.35Q207.31 0.54 202.50 0.54ZM202.50-26.28L202.50-26.28L202.50-26.28Q201.01-26.28 199.75-25.61L199.75-25.61L199.75-25.61Q198.50-24.93 197.57-23.47L197.57-23.47L197.57-23.47Q196.65-22.00 196.16-19.78L196.16-19.78L196.16-19.78Q195.66-17.55 195.66-14.45L195.66-14.45L195.66-14.45Q195.66-8.28 197.57-5.35L197.57-5.35L197.57-5.35Q199.49-2.43 202.50-2.43L202.50-2.43L202.50-2.43Q205.51-2.43 207.43-5.35L207.43-5.35L207.43-5.35Q209.34-8.28 209.34-14.45L209.34-14.45L209.34-14.45Q209.34-17.55 208.84-19.78L208.84-19.78L208.84-19.78Q208.35-22.00 207.43-23.47L207.43-23.47L207.43-23.47Q206.50-24.93 205.25-25.61L205.25-25.61L205.25-25.61Q203.99-26.28 202.50-26.28ZM202.50-11.74L202.50-11.74L202.50-11.74Q201.38-11.74 200.54-12.53L200.54-12.53L200.54-12.53Q199.71-13.32 199.71-14.76L199.71-14.76L199.71-14.76Q199.71-16.16 200.54-16.94L200.54-16.94L200.54-16.94Q201.38-17.73 202.50-17.73L202.50-17.73L202.50-17.73Q203.63-17.73 204.46-16.94L204.46-16.94L204.46-16.94Q205.29-16.16 205.29-14.76L205.29-14.76L205.29-14.76Q205.29-13.32 204.46-12.53L204.46-12.53L204.46-12.53Q203.63-11.74 202.50-11.74ZM229.50 0.54L229.50 0.54L229.50 0.54Q224.69 0.54 221.94-3.35L221.94-3.35L221.94-3.35Q219.19-7.25 219.19-14.45L219.19-14.45L219.19-14.45Q219.19-21.69 221.94-25.47L221.94-25.47L221.94-25.47Q224.69-29.25 229.50-29.25L229.50-29.25L229.50-29.25Q234.31-29.25 237.06-25.47L237.06-25.47L237.06-25.47Q239.81-21.69 239.81-14.45L239.81-14.45L239.81-14.45Q239.81-7.25 237.06-3.35L237.06-3.35L237.06-3.35Q234.31 0.54 229.50 0.54ZM229.50-26.28L229.50-26.28L229.50-26.28Q228.01-26.28 226.75-25.61L226.75-25.61L226.75-25.61Q225.50-24.93 224.57-23.47L224.57-23.47L224.57-23.47Q223.65-22.00 223.16-19.78L223.16-19.78L223.16-19.78Q222.66-17.55 222.66-14.45L222.66-14.45L222.66-14.45Q222.66-8.28 224.57-5.35L224.57-5.35L224.57-5.35Q226.49-2.43 229.50-2.43L229.50-2.43L229.50-2.43Q232.51-2.43 234.43-5.35L234.43-5.35L234.43-5.35Q236.34-8.28 236.34-14.45L236.34-14.45L236.34-14.45Q236.34-17.55 235.84-19.78L235.84-19.78L235.84-19.78Q235.35-22.00 234.43-23.47L234.43-23.47L234.43-23.47Q233.50-24.93 232.25-25.61L232.25-25.61L232.25-25.61Q230.99-26.28 229.50-26.28ZM229.50-11.74L229.50-11.74L229.50-11.74Q228.38-11.74 227.54-12.53L227.54-12.53L227.54-12.53Q226.71-13.32 226.71-14.76L226.71-14.76L226.71-14.76Q226.71-16.16 227.54-16.94L227.54-16.94L227.54-16.94Q228.38-17.73 229.50-17.73L229.50-17.73L229.50-17.73Q230.63-17.73 231.46-16.94L231.46-16.94L231.46-16.94Q232.29-16.16 232.29-14.76L232.29-14.76L232.29-14.76Q232.29-13.32 231.46-12.53L231.46-12.53L231.46-12.53Q230.63-11.74 229.50-11.74Z" fill="url(#editing-gradow-gradient)"></path></g></g><style>text {
  font-size: 100px;
  font-family: Arial Black;
  dominant-baseline: central;
  text-anchor: middle;
}</style></svg>